<mxfile host="Electron" agent="Mozilla/5.0 (Macintosh; Intel Mac OS X 10_15_7) AppleWebKit/537.36 (KHTML, like Gecko) draw.io/26.1.1 Chrome/132.0.6834.210 Electron/34.3.3 Safari/537.36" version="26.1.1">
  <diagram name="Page-1" id="bZhy83UsSpfE9Exgds9q">
    <mxGraphModel dx="1114" dy="878" grid="1" gridSize="10" guides="1" tooltips="1" connect="1" arrows="1" fold="1" page="1" pageScale="1" pageWidth="827" pageHeight="1169" math="0" shadow="0">
      <root>
        <mxCell id="0" />
        <mxCell id="1" parent="0" />
        <mxCell id="JB7BKlBr1k5Jt6Z1sdaU-1" value="" style="rounded=0;whiteSpace=wrap;html=1;fontStyle=1;strokeWidth=2;fillColor=#d5e8d4;strokeColor=#82b366;" vertex="1" parent="1">
          <mxGeometry x="190" y="70" width="100" height="110" as="geometry" />
        </mxCell>
        <mxCell id="JB7BKlBr1k5Jt6Z1sdaU-2" value="parent" style="rounded=1;whiteSpace=wrap;html=1;" vertex="1" parent="1">
          <mxGeometry x="210" y="90" width="60" height="30" as="geometry" />
        </mxCell>
        <mxCell id="JB7BKlBr1k5Jt6Z1sdaU-15" style="edgeStyle=orthogonalEdgeStyle;rounded=0;orthogonalLoop=1;jettySize=auto;html=1;entryX=0.5;entryY=0;entryDx=0;entryDy=0;endArrow=block;endFill=1;strokeWidth=2;fillColor=#dae8fc;strokeColor=#6c8ebf;" edge="1" parent="1" source="JB7BKlBr1k5Jt6Z1sdaU-3" target="JB7BKlBr1k5Jt6Z1sdaU-10">
          <mxGeometry relative="1" as="geometry" />
        </mxCell>
        <mxCell id="JB7BKlBr1k5Jt6Z1sdaU-16" style="edgeStyle=orthogonalEdgeStyle;rounded=0;orthogonalLoop=1;jettySize=auto;html=1;endArrow=block;endFill=1;strokeWidth=2;fillColor=#dae8fc;strokeColor=#6c8ebf;" edge="1" parent="1" source="JB7BKlBr1k5Jt6Z1sdaU-3" target="JB7BKlBr1k5Jt6Z1sdaU-6">
          <mxGeometry relative="1" as="geometry" />
        </mxCell>
        <mxCell id="JB7BKlBr1k5Jt6Z1sdaU-3" value="children" style="rounded=1;whiteSpace=wrap;html=1;fillColor=#dae8fc;strokeColor=#6c8ebf;" vertex="1" parent="1">
          <mxGeometry x="210" y="130" width="60" height="30" as="geometry" />
        </mxCell>
        <mxCell id="JB7BKlBr1k5Jt6Z1sdaU-4" value="부모 코루틴 Job 객체" style="text;html=1;align=center;verticalAlign=middle;whiteSpace=wrap;rounded=0;fontStyle=1" vertex="1" parent="1">
          <mxGeometry x="210" y="30" width="60" height="30" as="geometry" />
        </mxCell>
        <mxCell id="JB7BKlBr1k5Jt6Z1sdaU-6" value="" style="rounded=0;whiteSpace=wrap;html=1;fontStyle=1;strokeWidth=2;fillColor=#dae8fc;strokeColor=#6c8ebf;" vertex="1" parent="1">
          <mxGeometry x="100" y="270" width="100" height="110" as="geometry" />
        </mxCell>
        <mxCell id="JB7BKlBr1k5Jt6Z1sdaU-7" value="parent" style="rounded=1;whiteSpace=wrap;html=1;fillColor=#d5e8d4;strokeColor=#82b366;" vertex="1" parent="1">
          <mxGeometry x="120" y="290" width="60" height="30" as="geometry" />
        </mxCell>
        <mxCell id="JB7BKlBr1k5Jt6Z1sdaU-8" value="children" style="rounded=1;whiteSpace=wrap;html=1;" vertex="1" parent="1">
          <mxGeometry x="120" y="330" width="60" height="30" as="geometry" />
        </mxCell>
        <mxCell id="JB7BKlBr1k5Jt6Z1sdaU-9" value="자식 코루틴 Job 객체" style="text;html=1;align=center;verticalAlign=middle;whiteSpace=wrap;rounded=0;fontStyle=1" vertex="1" parent="1">
          <mxGeometry x="120" y="390" width="60" height="30" as="geometry" />
        </mxCell>
        <mxCell id="JB7BKlBr1k5Jt6Z1sdaU-10" value="" style="rounded=0;whiteSpace=wrap;html=1;fontStyle=1;strokeWidth=2;fillColor=#dae8fc;strokeColor=#6c8ebf;" vertex="1" parent="1">
          <mxGeometry x="290" y="270" width="100" height="110" as="geometry" />
        </mxCell>
        <mxCell id="JB7BKlBr1k5Jt6Z1sdaU-11" value="parent" style="rounded=1;whiteSpace=wrap;html=1;fillColor=#d5e8d4;strokeColor=#82b366;" vertex="1" parent="1">
          <mxGeometry x="310" y="290" width="60" height="30" as="geometry" />
        </mxCell>
        <mxCell id="JB7BKlBr1k5Jt6Z1sdaU-12" value="children" style="rounded=1;whiteSpace=wrap;html=1;" vertex="1" parent="1">
          <mxGeometry x="310" y="330" width="60" height="30" as="geometry" />
        </mxCell>
        <mxCell id="JB7BKlBr1k5Jt6Z1sdaU-13" value="자식 코루틴 Job 객체" style="text;html=1;align=center;verticalAlign=middle;whiteSpace=wrap;rounded=0;fontStyle=1" vertex="1" parent="1">
          <mxGeometry x="310" y="390" width="60" height="30" as="geometry" />
        </mxCell>
        <mxCell id="JB7BKlBr1k5Jt6Z1sdaU-17" style="edgeStyle=orthogonalEdgeStyle;rounded=0;orthogonalLoop=1;jettySize=auto;html=1;entryX=0.38;entryY=1.018;entryDx=0;entryDy=0;entryPerimeter=0;endArrow=block;endFill=1;strokeWidth=2;fillColor=#d5e8d4;strokeColor=#82b366;" edge="1" parent="1" source="JB7BKlBr1k5Jt6Z1sdaU-7" target="JB7BKlBr1k5Jt6Z1sdaU-1">
          <mxGeometry relative="1" as="geometry" />
        </mxCell>
        <mxCell id="JB7BKlBr1k5Jt6Z1sdaU-18" style="edgeStyle=orthogonalEdgeStyle;rounded=0;orthogonalLoop=1;jettySize=auto;html=1;entryX=0.64;entryY=1.018;entryDx=0;entryDy=0;entryPerimeter=0;endArrow=block;endFill=1;strokeWidth=2;fillColor=#d5e8d4;strokeColor=#82b366;" edge="1" parent="1" source="JB7BKlBr1k5Jt6Z1sdaU-11" target="JB7BKlBr1k5Jt6Z1sdaU-1">
          <mxGeometry relative="1" as="geometry" />
        </mxCell>
      </root>
    </mxGraphModel>
  </diagram>
</mxfile>
